<?xml version="1.0" encoding="UTF-8"?>
<svg width="24px" height="24px" viewBox="0 0 24 24" version="1.1" xmlns="http://www.w3.org/2000/svg" xmlns:xlink="http://www.w3.org/1999/xlink">
    <title>E20F50B4-DBCD-4A0D-8796-26118034BE13</title>
    <defs>
        <path d="M15.864494,14.3207547 L15.051458,14.3207547 L14.7632933,14.0428816 C15.7718696,12.8696398 16.3790738,11.3464837 16.3790738,9.68953688 C16.3790738,5.9948542 13.3842196,3 9.68953688,3 C5.9948542,3 3,5.9948542 3,9.68953688 C3,13.3842196 5.9948542,16.3790738 9.68953688,16.3790738 C11.3464837,16.3790738 12.8696398,15.7718696 14.0428816,14.7632933 L14.3207547,15.051458 L14.3207547,15.864494 L19.4665523,21 L21,19.4665523 L15.864494,14.3207547 Z M9.68953688,14.3207547 C7.12692967,14.3207547 5.05831904,12.2521441 5.05831904,9.68953688 C5.05831904,7.12692967 7.12692967,5.05831904 9.68953688,5.05831904 C12.2521441,5.05831904 14.3207547,7.12692967 14.3207547,9.68953688 C14.3207547,12.2521441 12.2521441,14.3207547 9.68953688,14.3207547 Z" id="path-1"></path>
    </defs>
    <g id="Page-1" stroke="none" stroke-width="1" fill="none" fill-rule="evenodd">
        <g id="0.-All-Icon_black-" transform="translate(-282.000000, -487.000000)">
            <g id="Group" transform="translate(60.000000, 151.000000)">
                <g id="ic/search" transform="translate(222.000000, 336.000000)">
                    <rect id="Rectangle-Copy-204" x="0" y="0" width="24" height="24"></rect>
                    <mask id="mask-2" fill="white">
                        <use xlink:href="#path-1"></use>
                    </mask>
                    <use id="Shape" fill="#707070" fill-rule="nonzero" xlink:href="#path-1"></use>
                </g>
            </g>
        </g>
    </g>
</svg>